<?xml version="1.0" encoding="utf-8" standalone="no"?>
<!DOCTYPE svg PUBLIC "-//W3C//DTD SVG 1.1//EN"
  "http://www.w3.org/Graphics/SVG/1.1/DTD/svg11.dtd">
<svg xmlns:xlink="http://www.w3.org/1999/xlink" width="832.153125pt" height="422.689752pt" viewBox="0 0 832.153125 422.689752" xmlns="http://www.w3.org/2000/svg" version="1.1">
 <metadata>
  <rdf:RDF xmlns:dc="http://purl.org/dc/elements/1.1/" xmlns:cc="http://creativecommons.org/ns#" xmlns:rdf="http://www.w3.org/1999/02/22-rdf-syntax-ns#">
   <cc:Work>
    <dc:type rdf:resource="http://purl.org/dc/dcmitype/StillImage"/>
    <dc:date>2026-09-17T17:58:44.701377</dc:date>
    <dc:format>image/svg+xml</dc:format>
    <dc:creator>
     <cc:Agent>
      <dc:title>Matplotlib v3.11.2, https://matplotlib.org/</dc:title>
     </cc:Agent>
    </dc:creator>
   </cc:Work>
  </rdf:RDF>
 </metadata>
 <defs>
  <style type="text/css">*{stroke-linejoin: round; stroke-linecap: butt}</style>
 </defs>
 <g id="figure_1">
  <g id="patch_1">
   <path d="M 0 422.689752 
L 832.153125 422.689752 
L 832.153125 -0 
L 0 -0 
z
" style="fill: #ffffff"/>
  </g>
  <g id="axes_1">
   <g id="patch_2">
    <path d="M 160.845552 373.398739 
L 680.99976 373.398739 
L 680.99976 46.698047 
L 160.845552 46.698047 
z
" style="fill: #ffffff"/>
   </g>
   <g id="patch_3">
    <path d="M 160.845552 210.048393 
L 680.99976 210.048393 
L 680.99976 371.812813 
L 160.845552 371.812813 
z
" clip-path="url(#p8565877187)" style="fill: #f2f4f7; stroke: #f2f4f7; stroke-linejoin: miter"/>
   </g>
   <g id="matplotlib.axis_1">
    <g id="xtick_1">
     <g id="line2d_1">
      <path d="M 227.248217 373.398739 
L 227.248217 46.698047 
" clip-path="url(#p8565877187)" style="fill: none; stroke: #b0b0b0; stroke-opacity: 0.18; stroke-width: 0.8; stroke-linecap: square"/>
     </g>
     <g id="line2d_2">
      <defs>
       <path id="m77825dd30a" d="M 0 0 
L 0 3.5 
" style="stroke: #000000; stroke-width: 0.8"/>
      </defs>
      <g>
       <use xlink:href="#m77825dd30a" x="227.248217" y="373.398739" style="stroke: #000000; stroke-width: 0.8"/>
      </g>
     </g>
     <g id="text_1">
      <text style="font-size: 10px; font-family: 'DejaVu Sans'; text-anchor: middle" x="227.248217" y="387.996395" transform="rotate(-0 227.248217 387.996395)">60</text>
     </g>
    </g>
    <g id="xtick_2">
     <g id="line2d_3">
      <path d="M 337.919325 373.398739 
L 337.919325 46.698047 
" clip-path="url(#p8565877187)" style="fill: none; stroke: #b0b0b0; stroke-opacity: 0.18; stroke-width: 0.8; stroke-linecap: square"/>
     </g>
     <g id="line2d_4">
      <g>
       <use xlink:href="#m77825dd30a" x="337.919325" y="373.398739" style="stroke: #000000; stroke-width: 0.8"/>
      </g>
     </g>
     <g id="text_2">
      <text style="font-size: 10px; font-family: 'DejaVu Sans'; text-anchor: middle" x="337.919325" y="387.996395" transform="rotate(-0 337.919325 387.996395)">70</text>
     </g>
    </g>
    <g id="xtick_3">
     <g id="line2d_5">
      <path d="M 448.590433 373.398739 
L 448.590433 46.698047 
" clip-path="url(#p8565877187)" style="fill: none; stroke: #b0b0b0; stroke-opacity: 0.18; stroke-width: 0.8; stroke-linecap: square"/>
     </g>
     <g id="line2d_6">
      <g>
       <use xlink:href="#m77825dd30a" x="448.590433" y="373.398739" style="stroke: #000000; stroke-width: 0.8"/>
      </g>
     </g>
     <g id="text_3">
      <text style="font-size: 10px; font-family: 'DejaVu Sans'; text-anchor: middle" x="448.590433" y="387.996395" transform="rotate(-0 448.590433 387.996395)">80</text>
     </g>
    </g>
    <g id="xtick_4">
     <g id="line2d_7">
      <path d="M 559.261541 373.398739 
L 559.261541 46.698047 
" clip-path="url(#p8565877187)" style="fill: none; stroke: #b0b0b0; stroke-opacity: 0.18; stroke-width: 0.8; stroke-linecap: square"/>
     </g>
     <g id="line2d_8">
      <g>
       <use xlink:href="#m77825dd30a" x="559.261541" y="373.398739" style="stroke: #000000; stroke-width: 0.8"/>
      </g>
     </g>
     <g id="text_4">
      <text style="font-size: 10px; font-family: 'DejaVu Sans'; text-anchor: middle" x="559.261541" y="387.996395" transform="rotate(-0 559.261541 387.996395)">90</text>
     </g>
    </g>
    <g id="xtick_5">
     <g id="line2d_9">
      <path d="M 669.932649 373.398739 
L 669.932649 46.698047 
" clip-path="url(#p8565877187)" style="fill: none; stroke: #b0b0b0; stroke-opacity: 0.18; stroke-width: 0.8; stroke-linecap: square"/>
     </g>
     <g id="line2d_10">
      <g>
       <use xlink:href="#m77825dd30a" x="669.932649" y="373.398739" style="stroke: #000000; stroke-width: 0.8"/>
      </g>
     </g>
     <g id="text_5">
      <text style="font-size: 10px; font-family: 'DejaVu Sans'; text-anchor: middle" x="669.932649" y="387.996395" transform="rotate(-0 669.932649 387.996395)">100</text>
     </g>
    </g>
    <g id="text_6">
     <text style="font-size: 10px; font-family: 'DejaVu Sans'; text-anchor: middle" x="420.922656" y="401.997176" transform="rotate(-0 420.922656 401.997176)">Accuracy on 100 questions (%)</text>
    </g>
   </g>
   <g id="matplotlib.axis_2">
    <g id="ytick_1">
     <g id="line2d_11"/>
     <g id="text_7">
      <text style="font-size: 10px; font-family: 'DejaVu Sans'; text-anchor: end" x="157.345552" y="86.973556" transform="rotate(-0 157.345552 86.973556)">Belebele reading · Jev</text>
     </g>
    </g>
    <g id="ytick_2">
     <g id="line2d_12"/>
     <g id="text_8">
      <text style="font-size: 10px; font-family: 'DejaVu Sans'; text-anchor: end" x="157.345552" y="118.69207" transform="rotate(-0 157.345552 118.69207)">Belebele reading · Luna</text>
     </g>
    </g>
    <g id="ytick_3">
     <g id="line2d_13"/>
     <g id="text_9">
      <text style="font-size: 10px; font-family: 'DejaVu Sans'; text-anchor: end" x="157.345552" y="150.410584" transform="rotate(-0 157.345552 150.410584)">PAWS-X paraphrase · Jev</text>
     </g>
    </g>
    <g id="ytick_4">
     <g id="line2d_14"/>
     <g id="text_10">
      <text style="font-size: 10px; font-family: 'DejaVu Sans'; text-anchor: end" x="157.345552" y="182.129098" transform="rotate(-0 157.345552 182.129098)">PAWS-X paraphrase · Luna</text>
     </g>
    </g>
    <g id="ytick_5">
     <g id="line2d_15"/>
     <g id="text_11">
      <text style="font-size: 10px; font-family: 'DejaVu Sans'; text-anchor: end" x="157.345552" y="245.566125" transform="rotate(-0 157.345552 245.566125)">KorMedMCQA (Korean) · Jev</text>
     </g>
    </g>
    <g id="ytick_6">
     <g id="line2d_16"/>
     <g id="text_12">
      <text style="font-size: 10px; font-family: 'DejaVu Sans'; text-anchor: end" x="157.345552" y="277.284639" transform="rotate(-0 157.345552 277.284639)">KorMedMCQA (Korean) · Luna</text>
     </g>
    </g>
    <g id="ytick_7">
     <g id="line2d_17"/>
     <g id="text_13">
      <text style="font-size: 10px; font-family: 'DejaVu Sans'; text-anchor: end" x="157.345552" y="309.003153" transform="rotate(-0 157.345552 309.003153)">MedQA (English) · Jev</text>
     </g>
    </g>
    <g id="ytick_8">
     <g id="line2d_18"/>
     <g id="text_14">
      <text style="font-size: 10px; font-family: 'DejaVu Sans'; text-anchor: end" x="157.345552" y="340.721667" transform="rotate(-0 157.345552 340.721667)">MedQA (English) · Luna</text>
     </g>
    </g>
   </g>
   <g id="LineCollection_1">
    <path d="M 561.06469 83.174338 
L 652.597897 83.174338 
" clip-path="url(#p8565877187)" style="fill: none; stroke: #0072b2; stroke-opacity: 0.22"/>
   </g>
   <g id="LineCollection_2">
    <path d="M 546.257167 114.892851 
L 646.090021 114.892851 
" clip-path="url(#p8565877187)" style="fill: none; stroke: #d55e00; stroke-opacity: 0.22"/>
   </g>
   <g id="LineCollection_3">
    <path d="M 302.146701 146.611365 
L 485.2079 146.611365 
" clip-path="url(#p8565877187)" style="fill: none; stroke: #0072b2; stroke-opacity: 0.22"/>
   </g>
   <g id="LineCollection_4">
    <path d="M 255.048482 178.329879 
L 447.044522 178.329879 
" clip-path="url(#p8565877187)" style="fill: none; stroke: #d55e00; stroke-opacity: 0.22"/>
   </g>
   <g id="LineCollection_5">
    <path d="M 350.282211 241.766907 
L 522.333986 241.766907 
" clip-path="url(#p8565877187)" style="fill: none; stroke: #0072b2; stroke-opacity: 0.22"/>
   </g>
   <g id="LineCollection_6">
    <path d="M 450.66995 273.48542 
L 592.469443 273.48542 
" clip-path="url(#p8565877187)" style="fill: none; stroke: #d55e00; stroke-opacity: 0.22"/>
   </g>
   <g id="LineCollection_7">
    <path d="M 463.738026 305.203934 
L 600.716765 305.203934 
" clip-path="url(#p8565877187)" style="fill: none; stroke: #0072b2; stroke-opacity: 0.22"/>
   </g>
   <g id="LineCollection_8">
    <path d="M 399.670822 336.922448 
L 558.206973 336.922448 
" clip-path="url(#p8565877187)" style="fill: none; stroke: #d55e00; stroke-opacity: 0.22"/>
   </g>
   <g id="patch_4">
    <path d="M 160.845552 373.398739 
L 680.99976 373.398739 
" style="fill: none; stroke: #000000; stroke-width: 0.7; stroke-linejoin: miter; stroke-linecap: square"/>
   </g>
   <g id="text_15">
    <text style="font-size: 8.5px; font-family: 'DejaVu Sans'; text-anchor: middle; fill: #0072b2" x="636.731317" y="70.348051" transform="rotate(-0 636.731317 70.348051)">97</text>
   </g>
   <g id="text_16">
    <text style="font-weight: 700; font-size: 9.5px; font-family: 'DejaVu Sans'; text-anchor: end; fill: #0072b2" x="213.967684" y="85.642111" transform="rotate(-0 213.967684 85.642111)">-1</text>
   </g>
   <g id="text_17">
    <text style="font-weight: 700; font-size: 9px; font-family: 'DejaVu Sans'; text-anchor: middle; fill: #12202e" x="625.664206" y="96.355931" transform="rotate(-0 625.664206 96.355931)">96</text>
   </g>
   <g id="text_18">
    <text style="font-size: 8.5px; font-family: 'DejaVu Sans'; text-anchor: middle; fill: #d55e00" x="647.798428" y="102.066565" transform="rotate(-0 647.798428 102.066565)">98</text>
   </g>
   <g id="text_19">
    <text style="font-weight: 700; font-size: 9.5px; font-family: 'DejaVu Sans'; text-anchor: end; fill: #d55e00" x="213.967684" y="117.360625" transform="rotate(-0 213.967684 117.360625)">-3</text>
   </g>
   <g id="text_20">
    <text style="font-weight: 700; font-size: 9px; font-family: 'DejaVu Sans'; text-anchor: middle; fill: #12202e" x="614.597095" y="128.074445" transform="rotate(-0 614.597095 128.074445)">95</text>
   </g>
   <g id="text_21">
    <text style="font-size: 8.5px; font-family: 'DejaVu Sans'; text-anchor: middle; fill: #0072b2" x="448.590433" y="133.785078" transform="rotate(-0 448.590433 133.785078)">80</text>
   </g>
   <g id="text_22">
    <text style="font-weight: 700; font-size: 9.5px; font-family: 'DejaVu Sans'; text-anchor: end; fill: #0072b2" x="213.967684" y="149.079139" transform="rotate(-0 213.967684 149.079139)">-4</text>
   </g>
   <g id="text_23">
    <text style="font-weight: 700; font-size: 9px; font-family: 'DejaVu Sans'; text-anchor: middle; fill: #12202e" x="404.32199" y="159.792959" transform="rotate(-0 404.32199 159.792959)">76</text>
   </g>
   <g id="text_24">
    <text style="font-size: 8.5px; font-family: 'DejaVu Sans'; text-anchor: middle; fill: #d55e00" x="481.791766" y="165.503592" transform="rotate(-0 481.791766 165.503592)">83</text>
   </g>
   <g id="text_25">
    <text style="font-weight: 700; font-size: 9.5px; font-family: 'DejaVu Sans'; text-anchor: end; fill: #d55e00" x="213.967684" y="180.797652" transform="rotate(-0 213.967684 180.797652)">-11</text>
   </g>
   <g id="text_26">
    <text style="font-weight: 700; font-size: 9px; font-family: 'DejaVu Sans'; text-anchor: middle; fill: #12202e" x="360.053547" y="191.511472" transform="rotate(-0 360.053547 191.511472)">72</text>
   </g>
   <g id="text_27">
    <text style="font-weight: 700; font-size: 9px; font-family: 'DejaVu Sans'; text-anchor: middle; fill: #12202e" x="448.590433" y="254.9485" transform="rotate(-0 448.590433 254.9485)">80</text>
   </g>
   <g id="text_28">
    <text style="font-weight: 700; font-size: 9px; font-family: 'DejaVu Sans'; text-anchor: middle; fill: #12202e" x="537.12732" y="286.667014" transform="rotate(-0 537.12732 286.667014)">88</text>
   </g>
   <g id="text_29">
    <text style="font-weight: 700; font-size: 9px; font-family: 'DejaVu Sans'; text-anchor: middle; fill: #12202e" x="548.19443" y="318.385528" transform="rotate(-0 548.19443 318.385528)">89</text>
   </g>
   <g id="text_30">
    <text style="font-weight: 700; font-size: 9px; font-family: 'DejaVu Sans'; text-anchor: middle; fill: #12202e" x="492.858876" y="350.104041" transform="rotate(-0 492.858876 350.104041)">84</text>
   </g>
   <g id="text_31">
    <text style="font-weight: 700; font-size: 8.5px; font-family: 'DejaVu Sans'; text-anchor: end; fill: #435261" x="213.967684" y="58.421609" transform="rotate(-0 213.967684 58.421609)">gap</text>
   </g>
   <g id="text_32">
    <text style="font-size: 9px; font-family: 'DejaVu Sans'; text-anchor: start; fill: #435261" x="227.248217" y="58.551843" transform="rotate(-0 227.248217 58.551843)">Matched bilingual tasks — same questions in both languages</text>
   </g>
   <g id="text_33">
    <text style="font-size: 9px; font-family: 'DejaVu Sans'; text-anchor: start; fill: #435261" x="227.248217" y="225.708411" transform="rotate(-0 227.248217 225.708411)">Medical exams — different tests, not a language comparison</text>
   </g>
   <g id="text_34">
    <text style="font-size: 12.5px; font-family: 'DejaVu Sans'; text-anchor: start" x="160.845552" y="16.698047" transform="rotate(-0 160.845552 16.698047)">The same questions in Korean and in English</text>
   </g>
   <g id="line2d_19">
    <path d="M 636.731317 83.174338 
L 625.664206 83.174338 
" clip-path="url(#p8565877187)" style="fill: none; stroke: #0072b2; stroke-opacity: 0.55; stroke-width: 5; stroke-linecap: round"/>
   </g>
   <g id="line2d_20">
    <path d="M 647.798428 114.892851 
L 614.597095 114.892851 
" clip-path="url(#p8565877187)" style="fill: none; stroke: #d55e00; stroke-opacity: 0.55; stroke-width: 5; stroke-linecap: round"/>
   </g>
   <g id="line2d_21">
    <path d="M 448.590433 146.611365 
L 404.32199 146.611365 
" clip-path="url(#p8565877187)" style="fill: none; stroke: #0072b2; stroke-opacity: 0.55; stroke-width: 5; stroke-linecap: round"/>
   </g>
   <g id="line2d_22">
    <path d="M 481.791766 178.329879 
L 360.053547 178.329879 
" clip-path="url(#p8565877187)" style="fill: none; stroke: #d55e00; stroke-opacity: 0.55; stroke-width: 5; stroke-linecap: round"/>
   </g>
   <g id="legend_1">
    <g id="line2d_23">
     <defs>
      <path id="m4fe51f6db0" d="M 0 4.5 
C 1.193414 4.5 2.338109 4.025852 3.181981 3.181981 
C 4.025852 2.338109 4.5 1.193414 4.5 0 
C 4.5 -1.193414 4.025852 -2.338109 3.181981 -3.181981 
C 2.338109 -4.025852 1.193414 -4.5 0 -4.5 
C -1.193414 -4.5 -2.338109 -4.025852 -3.181981 -3.181981 
C -4.025852 -2.338109 -4.5 -1.193414 -4.5 0 
C -4.5 1.193414 -4.025852 2.338109 -3.181981 3.181981 
C -2.338109 4.025852 -1.193414 4.5 0 4.5 
z
" style="stroke: #6e7b88; stroke-width: 1.8"/>
     </defs>
     <g>
      <use xlink:href="#m4fe51f6db0" x="178.895553" y="30.907317" style="fill: #ffffff; stroke: #6e7b88; stroke-width: 1.8"/>
     </g>
    </g>
    <g id="text_35">
     <text style="font-size: 9.5px; font-family: 'DejaVu Sans'; text-anchor: start" x="195.995553" y="34.232317" transform="rotate(-0 195.995553 34.232317)">English</text>
    </g>
    <g id="line2d_24">
     <defs>
      <path id="m85ff93e5ba" d="M 0 4.5 
C 1.193414 4.5 2.338109 4.025852 3.181981 3.181981 
C 4.025852 2.338109 4.5 1.193414 4.5 0 
C 4.5 -1.193414 4.025852 -2.338109 3.181981 -3.181981 
C 2.338109 -4.025852 1.193414 -4.5 0 -4.5 
C -1.193414 -4.5 -2.338109 -4.025852 -3.181981 -3.181981 
C -4.025852 -2.338109 -4.5 -1.193414 -4.5 0 
C -4.5 1.193414 -4.025852 2.338109 -3.181981 3.181981 
C -2.338109 4.025852 -1.193414 4.5 0 4.5 
z
" style="stroke: #6e7b88"/>
     </defs>
     <g>
      <use xlink:href="#m85ff93e5ba" x="258.797974" y="30.907317" style="fill: #6e7b88; stroke: #6e7b88"/>
     </g>
    </g>
    <g id="text_36">
     <text style="font-size: 9.5px; font-family: 'DejaVu Sans'; text-anchor: start" x="275.897974" y="34.232317" transform="rotate(-0 275.897974 34.232317)">Korean</text>
    </g>
   </g>
   <g id="line2d_25">
    <defs>
     <path id="m78beda8979" d="M 0 4.5 
C 1.193414 4.5 2.338109 4.025852 3.181981 3.181981 
C 4.025852 2.338109 4.5 1.193414 4.5 0 
C 4.5 -1.193414 4.025852 -2.338109 3.181981 -3.181981 
C 2.338109 -4.025852 1.193414 -4.5 0 -4.5 
C -1.193414 -4.5 -2.338109 -4.025852 -3.181981 -3.181981 
C -4.025852 -2.338109 -4.5 -1.193414 -4.5 0 
C -4.5 1.193414 -4.025852 2.338109 -3.181981 3.181981 
C -2.338109 4.025852 -1.193414 4.5 0 4.5 
z
" style="stroke: #0072b2; stroke-width: 1.8"/>
    </defs>
    <g clip-path="url(#p8565877187)">
     <use xlink:href="#m78beda8979" x="636.731317" y="83.174338" style="fill: #ffffff; stroke: #0072b2; stroke-width: 1.8"/>
    </g>
   </g>
   <g id="line2d_26">
    <defs>
     <path id="mfc64891705" d="M 0 4.5 
C 1.193414 4.5 2.338109 4.025852 3.181981 3.181981 
C 4.025852 2.338109 4.5 1.193414 4.5 0 
C 4.5 -1.193414 4.025852 -2.338109 3.181981 -3.181981 
C 2.338109 -4.025852 1.193414 -4.5 0 -4.5 
C -1.193414 -4.5 -2.338109 -4.025852 -3.181981 -3.181981 
C -4.025852 -2.338109 -4.5 -1.193414 -4.5 0 
C -4.5 1.193414 -4.025852 2.338109 -3.181981 3.181981 
C -2.338109 4.025852 -1.193414 4.5 0 4.5 
z
" style="stroke: #0072b2"/>
    </defs>
    <g clip-path="url(#p8565877187)">
     <use xlink:href="#mfc64891705" x="625.664206" y="83.174338" style="fill: #0072b2; stroke: #0072b2"/>
    </g>
   </g>
   <g id="line2d_27">
    <defs>
     <path id="m01698000bd" d="M 0 4.5 
C 1.193414 4.5 2.338109 4.025852 3.181981 3.181981 
C 4.025852 2.338109 4.5 1.193414 4.5 0 
C 4.5 -1.193414 4.025852 -2.338109 3.181981 -3.181981 
C 2.338109 -4.025852 1.193414 -4.5 0 -4.5 
C -1.193414 -4.5 -2.338109 -4.025852 -3.181981 -3.181981 
C -4.025852 -2.338109 -4.5 -1.193414 -4.5 0 
C -4.5 1.193414 -4.025852 2.338109 -3.181981 3.181981 
C -2.338109 4.025852 -1.193414 4.5 0 4.5 
z
" style="stroke: #d55e00; stroke-width: 1.8"/>
    </defs>
    <g clip-path="url(#p8565877187)">
     <use xlink:href="#m01698000bd" x="647.798428" y="114.892851" style="fill: #ffffff; stroke: #d55e00; stroke-width: 1.8"/>
    </g>
   </g>
   <g id="line2d_28">
    <defs>
     <path id="m20564bf42e" d="M 0 4.5 
C 1.193414 4.5 2.338109 4.025852 3.181981 3.181981 
C 4.025852 2.338109 4.5 1.193414 4.5 0 
C 4.5 -1.193414 4.025852 -2.338109 3.181981 -3.181981 
C 2.338109 -4.025852 1.193414 -4.5 0 -4.5 
C -1.193414 -4.5 -2.338109 -4.025852 -3.181981 -3.181981 
C -4.025852 -2.338109 -4.5 -1.193414 -4.5 0 
C -4.5 1.193414 -4.025852 2.338109 -3.181981 3.181981 
C -2.338109 4.025852 -1.193414 4.5 0 4.5 
z
" style="stroke: #d55e00"/>
    </defs>
    <g clip-path="url(#p8565877187)">
     <use xlink:href="#m20564bf42e" x="614.597095" y="114.892851" style="fill: #d55e00; stroke: #d55e00"/>
    </g>
   </g>
   <g id="line2d_29">
    <g clip-path="url(#p8565877187)">
     <use xlink:href="#m78beda8979" x="448.590433" y="146.611365" style="fill: #ffffff; stroke: #0072b2; stroke-width: 1.8"/>
    </g>
   </g>
   <g id="line2d_30">
    <g clip-path="url(#p8565877187)">
     <use xlink:href="#mfc64891705" x="404.32199" y="146.611365" style="fill: #0072b2; stroke: #0072b2"/>
    </g>
   </g>
   <g id="line2d_31">
    <g clip-path="url(#p8565877187)">
     <use xlink:href="#m01698000bd" x="481.791766" y="178.329879" style="fill: #ffffff; stroke: #d55e00; stroke-width: 1.8"/>
    </g>
   </g>
   <g id="line2d_32">
    <g clip-path="url(#p8565877187)">
     <use xlink:href="#m20564bf42e" x="360.053547" y="178.329879" style="fill: #d55e00; stroke: #d55e00"/>
    </g>
   </g>
   <g id="line2d_33">
    <g clip-path="url(#p8565877187)">
     <use xlink:href="#mfc64891705" x="448.590433" y="241.766907" style="fill: #0072b2; stroke: #0072b2"/>
    </g>
   </g>
   <g id="line2d_34">
    <g clip-path="url(#p8565877187)">
     <use xlink:href="#m20564bf42e" x="537.12732" y="273.48542" style="fill: #d55e00; stroke: #d55e00"/>
    </g>
   </g>
   <g id="line2d_35">
    <g clip-path="url(#p8565877187)">
     <use xlink:href="#mfc64891705" x="548.19443" y="305.203934" style="fill: #0072b2; stroke: #0072b2"/>
    </g>
   </g>
   <g id="line2d_36">
    <g clip-path="url(#p8565877187)">
     <use xlink:href="#m20564bf42e" x="492.858876" y="336.922448" style="fill: #d55e00; stroke: #d55e00"/>
    </g>
   </g>
   <g id="line2d_37">
    <path d="M 160.845552 210.048393 
L 680.99976 210.048393 
" clip-path="url(#p8565877187)" style="fill: none; stroke-dasharray: 3.6,2.7; stroke-dashoffset: 0; stroke: #9aa7b4; stroke-width: 0.9"/>
   </g>
  </g>
  <g id="text_37">
   <text style="font-size: 8.5px; font-family: 'DejaVu Sans'; text-anchor: start; fill: #54626f" x="7.2" y="413.44776" transform="rotate(-0 7.2 413.44776)">Axis starts at 60 to show the gaps; dots are point estimates, thin bars are Wilson 95% intervals.  Medical rows are two different exams, so the pair below the line is not a language comparison.</text>
  </g>
 </g>
 <defs>
  <clipPath id="p8565877187">
   <rect x="160.845552" y="46.698047" width="520.154208" height="326.700692"/>
  </clipPath>
 </defs>
</svg>
